<svg width="16" height="16" xmlns="http://www.w3.org/2000/svg" fill="none">

 <g>
  <title>Layer 1</title>
  <path transform="rotate(-180 8.06181 8.00059)" id="svg_1" fill="#212121" d="m9.58182,1.05192c-0.75054,-0.2086 -1.33649,0.35088 -1.54565,0.87172c-0.24084,0.59971 -0.45252,1.02063 -0.70554,1.52375c-0.15654,0.31126 -0.32889,0.65399 -0.53376,1.08997c-0.47424,1.00922 -0.9481,1.65643 -1.29215,2.0445c-0.17222,0.19425 -0.31257,0.32431 -0.40514,0.40281c-0.04632,0.03927 -0.08075,0.0657 -0.10132,0.08085l-0.01614,0.01164l-1.8719,1.10435c-0.83656,0.49354 -1.19758,1.51678 -0.85595,2.42599l0.51999,1.384c0.21641,0.5759 0.68587,1.0202 1.27287,1.2046l5.35588,1.6823c1.33479,0.4193 2.75379,-0.3384 3.14789,-1.6807l1.3642,-4.64611c0.3761,-1.28077 -0.5841,-2.56347 -1.919,-2.56347l-1.3849,0c0.0659,-0.22663 0.1334,-0.47874 0.1947,-0.74029c0.1314,-0.5611 0.2431,-1.20267 0.2328,-1.73743c-0.0095,-0.49715 -0.0597,-1.01882 -0.2639,-1.46201c-0.2192,-0.47549 -0.6027,-0.83241 -1.19298,-0.99647z"/>
 </g>
</svg>